HIERARCHY
ROOT hip
{
  OFFSET 0 0 0
  CHANNELS 6 Xposition Yposition Zposition Zrotation Yrotation Xrotation
  JOINT abdomen
  {
    OFFSET 0 20.6881 -0.73152
    CHANNELS 3 Zrotation Xrotation Yrotation
    JOINT chest
    {
      OFFSET 0 11.7043 -0.48768
      CHANNELS 3 Zrotation Xrotation Yrotation
      JOINT neck
      {
        OFFSET 0 22.1894 -2.19456
        CHANNELS 3 Zrotation Xrotation Yrotation
        JOINT head
        {
          OFFSET -0.24384 7.07133 1.2192
          CHANNELS 3 Zrotation Xrotation Yrotation
          JOINT leftEye
          {
            OFFSET 4.14528 8.04674 8.04672
            CHANNELS 3 Zrotation Xrotation Yrotation
            End Site
            {
              OFFSET 1 0 0
            }
          }
          JOINT rightEye
          {
            OFFSET -3.6576 8.04674 8.04672
            CHANNELS 3 Zrotation Xrotation Yrotation
            End Site
            {
              OFFSET 1 0 0
            }
          }
        }
      }
      JOINT rCollar
      {
        OFFSET -2.68224 19.2634 -4.8768
        CHANNELS 3 Zrotation Xrotation Yrotation
        JOINT rShldr
        {
          OFFSET -8.77824 -1.95073 1.46304
          CHANNELS 3 Zrotation Xrotation Yrotation
          JOINT rForeArm
          {
            OFFSET -28.1742 -1.7115 0.48768
            CHANNELS 3 Zrotation Xrotation Yrotation
            JOINT rHand
            {
              OFFSET -22.5879 0.773209 7.07136
              CHANNELS 3 Zrotation Xrotation Yrotation
              JOINT rThumb1
              {
                OFFSET -1.2192 -0.487915 3.41376
                CHANNELS 3 Zrotation Xrotation Yrotation
                JOINT rThumb2
                {
                  OFFSET -3.37035 -0.52449 3.41376
                  CHANNELS 3 Zrotation Xrotation Yrotation
                  End Site
                  {
                    OFFSET -1.78271 -1.18214 1.43049
                  }
                }
              }
              JOINT rIndex1
              {
                OFFSET -7.75947 0.938293 5.60832
                CHANNELS 3 Zrotation Xrotation Yrotation
                JOINT rIndex2
                {
                  OFFSET -2.54057 -0.884171 1.56538
                  CHANNELS 3 Zrotation Xrotation Yrotation
                  End Site
                  {
                    OFFSET -1.62519 -0.234802 1.16502
                  }
                }
              }
              JOINT rMid1
              {
                OFFSET -8.24714 1.18213 3.41376
                CHANNELS 3 Zrotation Xrotation Yrotation
                JOINT rMid2
                {
                  OFFSET -3.10165 -0.590103 1.0647
                  CHANNELS 3 Zrotation Xrotation Yrotation
                  End Site
                  {
                    OFFSET -2.48547 -0.328903 0.83742
                  }
                }
              }
              JOINT rRing1
              {
                OFFSET -8.82822 0.546677 1.51678
                CHANNELS 3 Zrotation Xrotation Yrotation
                JOINT rRing2
                {
                  OFFSET -2.60934 -0.819778 -0.0198488
                  CHANNELS 3 Zrotation Xrotation Yrotation
                  End Site
                  {
                    OFFSET -2.33842 -0.294052 0.168128
                  }
                }
              }
              JOINT rPinky1
              {
                OFFSET -8.27202 -0.0477905 -0.4584
                CHANNELS 3 Zrotation Xrotation Yrotation
                JOINT rPinky2
                {
                  OFFSET -1.82734 -0.647385 -0.700984
                  CHANNELS 3 Zrotation Xrotation Yrotation
                  End Site
                  {
                    OFFSET -1.69225 -0.51767 -0.607171
                  }
                }
              }
            }
          }
        }
      }
      JOINT lCollar
      {
        OFFSET 2.68224 19.2634 -4.8768
        CHANNELS 3 Zrotation Xrotation Yrotation
        JOINT lShldr
        {
          OFFSET 8.77824 -1.95073 1.46304
          CHANNELS 3 Zrotation Xrotation Yrotation
          JOINT lForeArm
          {
            OFFSET 28.1742 -1.7115 0.48768
            CHANNELS 3 Zrotation Xrotation Yrotation
            JOINT lHand
            {
              OFFSET 22.5879 0.773209 7.07136
              CHANNELS 3 Zrotation Xrotation Yrotation
              JOINT lThumb1
              {
                OFFSET 1.2192 -0.487915 3.41376
                CHANNELS 3 Zrotation Xrotation Yrotation
                JOINT lThumb2
                {
                  OFFSET 3.37035 -0.52449 3.41376
                  CHANNELS 3 Zrotation Xrotation Yrotation
                  End Site
                  {
                    OFFSET 1.78271 -1.18214 1.43049
                  }
                }
              }
              JOINT lIndex1
              {
                OFFSET 7.75947 0.938293 5.60832
                CHANNELS 3 Zrotation Xrotation Yrotation
                JOINT lIndex2
                {
                  OFFSET 2.54057 -0.884171 1.56538
                  CHANNELS 3 Zrotation Xrotation Yrotation
                  End Site
                  {
                    OFFSET 1.62519 -0.234802 1.16502
                  }
                }
              }
              JOINT lMid1
              {
                OFFSET 8.24714 1.18213 3.41376
                CHANNELS 3 Zrotation Xrotation Yrotation
                JOINT lMid2
                {
                  OFFSET 3.10165 -0.590103 1.0647
                  CHANNELS 3 Zrotation Xrotation Yrotation
                  End Site
                  {
                    OFFSET 2.48547 -0.328903 0.83742
                  }
                }
              }
              JOINT lRing1
              {
                OFFSET 8.82822 0.546677 1.51678
                CHANNELS 3 Zrotation Xrotation Yrotation
                JOINT lRing2
                {
                  OFFSET 2.60934 -0.819778 -0.0198488
                  CHANNELS 3 Zrotation Xrotation Yrotation
                  End Site
                  {
                    OFFSET 2.33842 -0.294052 0.168128
                  }
                }
              }
              JOINT lPinky1
              {
                OFFSET 8.27202 -0.0477905 -0.4584
                CHANNELS 3 Zrotation Xrotation Yrotation
                JOINT lPinky2
                {
                  OFFSET 1.82734 -0.647385 -0.700984
                  CHANNELS 3 Zrotation Xrotation Yrotation
                  End Site
                  {
                    OFFSET 1.69225 -0.51767 -0.607171
                  }
                }
              }
            }
          }
        }
      }
    }
  }
  JOINT rButtock
  {
    OFFSET -8.77824 4.35084 1.2192
    CHANNELS 3 Zrotation Xrotation Yrotation
    JOINT rThigh
    {
      OFFSET 0 -1.70687 -2.19456
      CHANNELS 3 Zrotation Xrotation Yrotation
      JOINT rShin
      {
        OFFSET 0 -36.8199 0.73152
        CHANNELS 3 Zrotation Xrotation Yrotation
        JOINT rFoot
        {
          OFFSET 0.73152 -45.1104 -5.12064
          CHANNELS 3 Zrotation Xrotation Yrotation
          End Site
          {
            OFFSET -1.1221 -3.69964 12.103
          }
        }
      }
    }
  }
  JOINT lButtock
  {
    OFFSET 8.77824 4.35084 1.2192
    CHANNELS 3 Zrotation Xrotation Yrotation
    JOINT lThigh
    {
      OFFSET 0 -1.70687 -2.19456
      CHANNELS 3 Zrotation Xrotation Yrotation
      JOINT lShin
      {
        OFFSET 0 -36.8199 0.73152
        CHANNELS 3 Zrotation Xrotation Yrotation
        JOINT lFoot
        {
          OFFSET -0.73152 -45.1104 -5.12064
          CHANNELS 3 Zrotation Xrotation Yrotation
          End Site
          {
            OFFSET 1.1221 -3.69964 12.103
          }
        }
      }
    }
  }
}
MOTION
Frames:	4
Frame Time:	0.00833333
-49.2705 84.8928 8.5751 0.0 0.0 0.0 -0.180103 -0.000587638 -0.00513672 -0.0496698 -0.000861209 -0.00860455 -5.2609e-15 -1.59028e-15 6.21202e-18 -1.5791e-14 3.18055e-15 2.01891e-17 -0.0 0.0 0.0 -0.0 0.0 0.0 -2.685e-15 9.70628e-19 9.93923e-17 -5.29275e-14 3.60297e-16 7.95139e-16 -9.48054e-13 2.87244e-13 9.54166e-15 -1.08763e-11 -2.75143e-13 -9.54166e-15 -2.5652e-11 2.38775e-14 9.54166e-15 -4.43039e-11 3.49861e-14 7.15625e-15 -2.56464e-11 2.74323e-14 -6.36111e-15 7.73091 5.47488 0.417314 -2.56513e-11 2.43511e-14 9.54166e-15 2.90554 0.965183 0.102902 -2.5642e-11 2.44505e-14 5.56597e-15 10.2786 0.731801 0.0259123 -2.56528e-11 2.42517e-14 1.27222e-14 2.22167 -0.733487 -0.20892 -2.58296e-15 9.70628e-19 -9.93923e-17 -5.88242e-14 2.73329e-16 -1.19271e-15 -9.52825e-13 -2.80684e-13 1.90833e-14 -1.08742e-11 2.95866e-13 -6.36111e-15 -2.56554e-11 2.88669e-14 9.54166e-15 -4.43027e-11 4.77083e-14 1.43125e-14 -2.56607e-11 3.18055e-14 1.90833e-14 -7.73091 5.47488 -0.417314 -2.56563e-11 2.97183e-14 3.18055e-15 -2.90554 0.965183 -0.102902 -2.56659e-11 2.95195e-14 4.77083e-15 -10.2786 0.731801 -0.0259123 -2.56553e-11 2.78299e-14 -6.36111e-15 -2.22167 -0.733487 0.20892 -2.03217e-16 0.0 -3.88251e-19 0.372804 -2.84397 -0.0346956 -0.00664425 -0.40143 -0.0583803 -0.50892 3.24461 0.124422 2.03217e-16 0.0 3.88251e-19 -0.648537 -3.54396 0.0518895 0.00461616 0.866552 0.0396592 0.512637 2.67665 -0.113289
-54.8902 83.3668 -1.8084 42.3175 87.5599 59.7825 -1.81291 -4.95243 0.110469 0.94452 -0.233439 0.16331 -0.453713 4.94345 0.15853 1.19444 -5.63274 0.602956 -0.0 0.0 0.0 -0.0 0.0 0.0 1.37945e-14 1.46046e-12 2.7628e-15 23.0587 -3.00424 -2.48451 -2.24833 -0.804767 3.71198 0.217361 10.3755 1.37337 8.74168e-10 6.90798e-10 -1.18129e-09 1.47214e-09 1.19328e-09 -2.06081e-09 8.74172e-10 6.908e-10 -1.1813e-09 7.73091 5.47488 0.417314 8.74168e-10 6.90798e-10 -1.18129e-09 2.90554 0.965183 0.102902 8.74175e-10 6.90798e-10 -1.1813e-09 10.2786 0.731801 0.0259123 8.74165e-10 6.90798e-10 -1.18129e-09 2.22167 -0.733487 -0.20892 1.38538e-14 1.46046e-12 2.505e-15 -23.4913 -0.445034 1.07095 3.01054 -1.19223 -4.87577 -0.1968 9.8687 -1.31383 -1.07133e-09 4.98708e-10 6.7874e-10 -1.82856e-09 8.67231e-10 1.19884e-09 -1.07134e-09 4.98712e-10 6.78752e-10 -7.73091 5.47488 -0.417314 -1.07133e-09 4.9871e-10 6.78737e-10 -2.90554 0.965183 -0.102902 -1.07134e-09 4.98709e-10 6.78739e-10 -10.2786 0.731801 -0.0259123 -1.07133e-09 4.98708e-10 6.7873e-10 -2.22167 -0.733487 0.20892 -2.03217e-16 0.0 -3.88251e-19 -0.508371 -9.12372 2.21228 0.0770163 6.75684 0.205679 0.347614 0.220848 -5.44144 2.03217e-16 0.0 3.88251e-19 1.59448 -11.2736 -3.40201 -0.0796427 7.53852 -0.229054 -0.18706 -0.622588 4.7281
-54.881 83.3652 -1.7853 45.0444 87.6302 62.5486 -3.52404 -10.1873 0.236527 2.00323 -0.483249 0.345869 -0.9646 10.17 0.329858 2.58892 -11.5878 1.25962 -0.0 0.0 0.0 -0.0 0.0 0.0 3.2043e-14 3.08895e-12 5.72748e-15 47.143 -6.18642 -5.13056 -4.50679 -1.64167 7.62981 -0.129997 21.3452 2.98647 1.93871e-09 1.49922e-09 -2.56107e-09 3.26687e-09 2.59006e-09 -4.46835e-09 1.93872e-09 1.49922e-09 -2.56108e-09 7.73091 5.47488 0.417314 1.93871e-09 1.49922e-09 -2.56107e-09 2.90554 0.965183 0.102902 1.93872e-09 1.49922e-09 -2.56107e-09 10.2786 0.731801 0.0259123 1.93871e-09 1.49922e-09 -2.56106e-09 2.22167 -0.733487 -0.20892 3.2061e-14 3.08895e-12 5.40446e-15 -48.3136 -0.884908 2.19677 5.97782 -2.42635 -10.0442 0.116587 20.2707 -2.83713 -2.30378e-09 1.09228e-09 1.48962e-09 -3.93119e-09 1.89927e-09 2.63074e-09 -2.30379e-09 1.09229e-09 1.48964e-09 -7.73091 5.47488 -0.417314 -2.30378e-09 1.09228e-09 1.48963e-09 -2.90554 0.965183 -0.102902 -2.30379e-09 1.09228e-09 1.48963e-09 -10.2786 0.731801 -0.0259123 -2.30378e-09 1.09228e-09 1.48962e-09 -2.22167 -0.733487 0.20892 -2.03217e-16 0.0 -3.88251e-19 -0.893883 -15.7265 4.70848 0.0916875 14.3194 0.497198 0.617959 -2.91269 -11.3382 2.03217e-16 0.0 3.88251e-19 2.89113 -19.3391 -7.34242 -0.0985085 14.5758 -0.525528 -0.321855 -4.05012 9.87364
-54.8662 83.3733 -1.7653 49.8571 87.7359 67.263 -5.01683 -14.8559 0.352216 2.93709 -0.698571 0.507174 -1.44561 14.8299 0.490149 3.95255 -16.8906 1.88132 -0.0 0.0 0.0 -0.0 0.0 0.0 4.67535e-14 4.38138e-12 8.0896e-15 68.3887 -8.94453 -7.53544 -6.43413 -2.37381 11.1445 -1.05039 31.0487 4.73191 2.67381e-09 2.07234e-09 -3.5439e-09 4.50503e-09 3.57977e-09 -6.18244e-09 2.67381e-09 2.07235e-09 -3.5439e-09 7.73091 5.47488 0.417314 2.67381e-09 2.07234e-09 -3.5439e-09 2.90554 0.965183 0.102902 2.67381e-09 2.07234e-09 -3.5439e-09 10.2786 0.731801 0.0259123 2.6738e-09 2.07235e-09 -3.54389e-09 2.22167 -0.733487 -0.20892 4.67272e-14 4.38138e-12 7.71378e-15 -70.4241 -1.33324 3.21363 8.42929 -3.47322 -14.6516 0.938349 29.539 -4.46441 -3.16267e-09 1.49607e-09 2.0362e-09 -5.39708e-09 2.6016e-09 3.59649e-09 -3.16269e-09 1.49607e-09 2.03622e-09 -7.73091 5.47488 -0.417314 -3.16267e-09 1.49607e-09 2.0362e-09 -2.90554 0.965183 -0.102902 -3.16269e-09 1.49607e-09 2.03621e-09 -10.2786 0.731801 -0.0259123 -3.16268e-09 1.49607e-09 2.0362e-09 -2.22167 -0.733487 0.20892 -2.03217e-16 0.0 -3.88251e-19 -0.699052 -21.5512 7.12239 0.0350207 21.0717 0.78179 0.317116 -5.58098 -16.6539 2.03217e-16 0.0 3.88251e-19 3.01792 -26.3426 -11.2989 -0.049367 20.8807 -0.813996 0.0772415 -6.99892 14.5204
